<svg xmlns="http://www.w3.org/2000/svg" xmlns:xlink="http://www.w3.org/1999/xlink" width="260" zoomAndPan="magnify" viewBox="0 0 194.87999 195.000001" height="260" preserveAspectRatio="xMidYMid meet" version="1.0"><defs><g/><clipPath id="0fa41b42f3"><path d="M 0.4375 0 L 194.324219 0 L 194.324219 194.003906 L 0.4375 194.003906 Z M 0.4375 0 " clip-rule="nonzero"/></clipPath><clipPath id="7abba9f07a"><path d="M 31.578125 28.144531 L 62.355469 28.144531 L 62.355469 58.921875 L 31.578125 58.921875 Z M 31.578125 28.144531 " clip-rule="nonzero"/></clipPath><clipPath id="53d24a8d35"><path d="M 46.96875 28.144531 C 38.46875 28.144531 31.578125 35.035156 31.578125 43.53125 C 31.578125 52.03125 38.46875 58.921875 46.96875 58.921875 C 55.464844 58.921875 62.355469 52.03125 62.355469 43.53125 C 62.355469 35.035156 55.464844 28.144531 46.96875 28.144531 " clip-rule="nonzero"/></clipPath></defs><g clip-path="url(#0fa41b42f3)"><path fill="#ffffff" d="M 0.4375 0 L 194.441406 0 L 194.441406 201.46875 L 0.4375 201.46875 Z M 0.4375 0 " fill-opacity="1" fill-rule="nonzero"/><path fill="#ffffff" d="M 0.4375 0 L 194.441406 0 L 194.441406 194.003906 L 0.4375 194.003906 Z M 0.4375 0 " fill-opacity="1" fill-rule="nonzero"/><path fill="#000000" d="M 0.4375 0 L 194.441406 0 L 194.441406 194.003906 L 0.4375 194.003906 Z M 0.4375 0 " fill-opacity="1" fill-rule="nonzero"/></g><g fill="#ffffff" fill-opacity="1"><g transform="translate(28.6205, 160.435937)"><g><path d="M 28.253906 0 L 28.253906 -91.492188 L 8.074219 -91.492188 L 8.074219 0 Z M 28.253906 0 "/></g></g></g><g fill="#ffffff" fill-opacity="1"><g transform="translate(41.128582, 160.435937)"><g/></g></g><g fill="#ffffff" fill-opacity="1"><g transform="translate(50.949786, 160.435937)"><g/></g></g><g fill="#ffffff" fill-opacity="1"><g transform="translate(60.768085, 160.435937)"><g><path d="M 53.820312 -74.003906 C 62.699219 -74.003906 71.851562 -70.371094 76.289062 -60.683594 L 98.492188 -60.683594 C 92.167969 -79.652344 74.003906 -92.839844 53.820312 -92.839844 C 27.988281 -92.839844 6.726562 -71.582031 6.726562 -45.746094 C 6.726562 -19.914062 27.988281 1.34375 53.820312 1.34375 C 79.921875 1.34375 100.777344 -19.777344 100.777344 -45.746094 L 100.777344 -48.839844 L 55.703125 -48.839844 L 55.703125 -33.636719 L 78.980469 -33.636719 C 74.003906 -19.777344 62.699219 -16.953125 53.820312 -16.953125 C 39.289062 -16.953125 27.179688 -30.003906 27.179688 -45.476562 C 27.179688 -60.949219 39.289062 -74.003906 53.820312 -74.003906 Z M 53.820312 -74.003906 "/></g></g></g><g clip-path="url(#7abba9f07a)"><g clip-path="url(#53d24a8d35)"><path fill="#efc220" d="M 31.578125 28.144531 L 62.355469 28.144531 L 62.355469 58.921875 L 31.578125 58.921875 Z M 31.578125 28.144531 " fill-opacity="1" fill-rule="nonzero"/></g></g></svg>