<svg xmlns="http://www.w3.org/2000/svg" xmlns:xlink="http://www.w3.org/1999/xlink" width="185" zoomAndPan="magnify" viewBox="0 0 138.75 48" height="64" preserveAspectRatio="xMidYMid meet" version="1.0"><defs><g/><clipPath id="1b1246fa9f"><path d="M 48.316406 1.636719 L 54.464844 1.636719 L 54.464844 7.785156 L 48.316406 7.785156 Z M 48.316406 1.636719 " clip-rule="nonzero"/></clipPath><clipPath id="85505492dd"><path d="M 51.390625 1.636719 C 49.691406 1.636719 48.316406 3.011719 48.316406 4.710938 C 48.316406 6.410156 49.691406 7.785156 51.390625 7.785156 C 53.089844 7.785156 54.464844 6.410156 54.464844 4.710938 C 54.464844 3.011719 53.089844 1.636719 51.390625 1.636719 " clip-rule="nonzero"/></clipPath></defs><g fill="#ffffff" fill-opacity="1"><g transform="translate(46.258174, 42.351173)"><g><path d="M 7.230469 0 L 7.230469 -33.917969 L 3.742188 -33.917969 L 3.742188 0 Z M 7.230469 0 "/></g></g></g><g fill="#ffffff" fill-opacity="1"><g transform="translate(48.399411, 42.351173)"><g/></g></g><g fill="#ffffff" fill-opacity="1"><g transform="translate(53.034087, 42.351173)"><g><path d="M 37.207031 -15.859375 L 19.550781 -15.859375 L 19.550781 -12.820312 L 33.316406 -12.820312 C 32.269531 -9.875 30.523438 -7.480469 28.03125 -5.734375 C 25.539062 -3.941406 22.742188 -3.09375 19.703125 -3.09375 C 15.8125 -3.09375 12.519531 -4.4375 9.777344 -7.183594 C 7.082031 -9.925781 5.734375 -13.265625 5.734375 -17.109375 C 5.734375 -20.949219 7.082031 -24.242188 9.824219 -26.984375 C 12.519531 -29.675781 15.8125 -31.074219 19.703125 -31.074219 C 22.59375 -31.074219 25.238281 -30.226562 27.582031 -28.578125 C 29.976562 -26.933594 31.671875 -24.789062 32.769531 -22.046875 L 36.460938 -22.046875 C 35.3125 -25.785156 33.167969 -28.777344 30.074219 -31.074219 C 26.984375 -33.367188 23.390625 -34.566406 19.351562 -34.566406 C 17.15625 -34.566406 15.011719 -34.066406 12.917969 -33.167969 C 10.773438 -32.269531 8.929688 -31.023438 7.332031 -29.425781 C 5.734375 -27.832031 4.488281 -25.984375 3.589844 -23.890625 C 2.695312 -21.746094 2.246094 -19.453125 2.246094 -17.058594 C 2.246094 -14.664062 2.695312 -12.371094 3.589844 -10.273438 C 4.488281 -8.128906 5.734375 -6.285156 7.332031 -4.6875 C 8.929688 -3.09375 10.773438 -1.84375 12.917969 -0.949219 C 15.011719 -0.0507812 17.308594 0.398438 19.703125 0.398438 C 23.792969 0.398438 27.480469 -0.898438 30.773438 -3.542969 C 34.066406 -6.234375 36.109375 -9.625 36.859375 -13.765625 Z M 37.207031 -15.859375 "/></g></g></g><g clip-path="url(#1b1246fa9f)"><g clip-path="url(#85505492dd)"><path fill="#efc220" d="M 48.316406 1.636719 L 54.464844 1.636719 L 54.464844 7.785156 L 48.316406 7.785156 Z M 48.316406 1.636719 " fill-opacity="1" fill-rule="nonzero"/></g></g></svg>