<svg xmlns="http://www.w3.org/2000/svg" xmlns:xlink="http://www.w3.org/1999/xlink" width="40" zoomAndPan="magnify" viewBox="0 0 30 30.000001" height="40" preserveAspectRatio="xMidYMid meet" version="1.0"><defs><clipPath id="bef757ba93"><path d="M 5.101562 0 L 24.699219 0 L 24.699219 29 L 5.101562 29 Z M 5.101562 0 " clip-rule="nonzero"/></clipPath></defs><g clip-path="url(#bef757ba93)"><path fill="#ffffff" d="M 18.921875 28.785156 L 15.792969 20.886719 C 16.097656 20.976562 16.394531 21.039062 16.695312 21.039062 C 17.839844 21.039062 18.863281 20.429688 19.402344 19.425781 L 19.433594 19.367188 L 19.496094 19.367188 C 19.675781 19.394531 19.855469 19.425781 20.035156 19.425781 C 20.515625 19.425781 20.941406 19.308594 21.359375 19.125 L 24.308594 26.628906 C 24.398438 26.871094 24.1875 27.113281 23.945312 27.027344 L 21.179688 26.140625 C 21.089844 26.113281 21 26.140625 20.941406 26.234375 L 19.464844 28.847656 C 19.34375 29.027344 19.011719 28.996094 18.921875 28.785156 Z M 5.414062 26.539062 L 8.359375 19.09375 C 8.753906 19.277344 9.203125 19.394531 9.65625 19.394531 C 9.835938 19.394531 10.019531 19.367188 10.199219 19.335938 L 10.257812 19.335938 L 10.289062 19.394531 C 10.800781 20.371094 11.851562 20.976562 12.996094 20.976562 C 13.296875 20.976562 13.628906 20.917969 13.898438 20.828125 L 10.800781 28.695312 C 10.707031 28.9375 10.378906 28.96875 10.257812 28.722656 L 8.785156 26.113281 C 8.722656 26.023438 8.632812 25.992188 8.542969 26.023438 L 5.773438 26.902344 C 5.535156 26.992188 5.324219 26.753906 5.414062 26.539062 Z M 17.058594 6.757812 L 18.414062 8.125 L 15.3125 11.257812 L 13.957031 12.589844 L 11.308594 9.917969 L 12.664062 8.550781 L 13.957031 9.859375 Z M 14.863281 15.417969 C 11.734375 15.417969 9.175781 12.863281 9.175781 9.675781 C 9.175781 6.515625 11.703125 3.933594 14.863281 3.933594 C 17.992188 3.933594 20.546875 6.484375 20.546875 9.675781 C 20.546875 12.835938 17.992188 15.417969 14.863281 15.417969 Z M 23.644531 8.429688 C 23.257812 8.066406 23.105469 7.488281 23.316406 7 L 23.496094 6.546875 C 23.796875 5.847656 23.40625 5.058594 22.683594 4.84375 L 22.203125 4.722656 C 21.691406 4.570312 21.328125 4.113281 21.296875 3.566406 L 21.296875 3.050781 C 21.269531 2.292969 20.578125 1.742188 19.855469 1.867188 L 19.375 1.957031 C 18.832031 2.046875 18.320312 1.804688 18.082031 1.320312 L 17.839844 0.894531 C 17.480469 0.226562 16.636719 0.0429688 16.035156 0.46875 L 15.644531 0.742188 C 15.222656 1.046875 14.621094 1.046875 14.199219 0.742188 L 13.808594 0.4375 C 13.203125 -0.0195312 12.335938 0.195312 11.972656 0.863281 L 11.734375 1.289062 C 11.460938 1.773438 10.949219 2.015625 10.40625 1.929688 L 9.925781 1.835938 C 9.175781 1.714844 8.511719 2.261719 8.453125 3.019531 L 8.421875 3.507812 C 8.390625 4.054688 8.03125 4.511719 7.519531 4.660156 L 7.039062 4.8125 C 6.316406 5.027344 5.925781 5.816406 6.226562 6.515625 L 6.40625 6.96875 C 6.617188 7.457031 6.464844 8.035156 6.074219 8.398438 L 5.714844 8.730469 C 5.144531 9.21875 5.144531 10.132812 5.714844 10.617188 L 6.074219 10.953125 C 6.464844 11.316406 6.617188 11.894531 6.40625 12.378906 L 6.226562 12.835938 C 5.925781 13.535156 6.316406 14.324219 7.039062 14.535156 L 7.519531 14.65625 C 8.03125 14.808594 8.390625 15.265625 8.421875 15.8125 L 8.453125 16.296875 C 8.484375 17.058594 9.175781 17.605469 9.898438 17.484375 L 10.378906 17.390625 C 10.917969 17.300781 11.433594 17.542969 11.671875 18.03125 L 11.914062 18.457031 C 12.273438 19.125 13.117188 19.308594 13.71875 18.882812 L 14.109375 18.605469 C 14.53125 18.304688 15.132812 18.304688 15.550781 18.605469 L 15.945312 18.910156 C 16.546875 19.367188 17.417969 19.152344 17.78125 18.488281 L 18.019531 18.058594 C 18.292969 17.574219 18.800781 17.332031 19.34375 17.421875 L 19.828125 17.515625 C 20.578125 17.636719 21.242188 17.089844 21.296875 16.328125 L 21.328125 15.84375 C 21.359375 15.296875 21.722656 14.839844 22.230469 14.6875 L 22.710938 14.566406 C 23.4375 14.355469 23.828125 13.566406 23.527344 12.863281 L 23.34375 12.410156 C 23.136719 11.921875 23.285156 11.34375 23.675781 10.984375 L 24.039062 10.648438 C 24.609375 10.160156 24.609375 9.25 24.039062 8.761719 L 23.644531 8.429688 " fill-opacity="1" fill-rule="nonzero"/></g></svg>